HIERARCHY
ROOT mixamorig:Hips
{
	OFFSET 0.000000 201.639420 0.000000
	CHANNELS 6 Xposition Yposition Zposition Xrotation Yrotation Zrotation
	JOINT mixamorig:Spine
	{
		OFFSET 0.006200 19.524994 -2.481800
		CHANNELS 3 Xrotation Yrotation Zrotation
		JOINT mixamorig:Spine1
		{
			OFFSET -0.000900 22.835007 -2.825400
			CHANNELS 3 Xrotation Yrotation Zrotation
			JOINT mixamorig:Spine2
			{
				OFFSET -0.020600 26.552490 -3.193300
				CHANNELS 3 Xrotation Yrotation Zrotation
				JOINT mixamorig:Neck
				{
					OFFSET -0.060000 30.701813 1.352200
					CHANNELS 3 Xrotation Yrotation Zrotation
					JOINT mixamorig:Head
					{
						OFFSET -0.087200 22.547607 3.670900
						CHANNELS 3 Xrotation Yrotation Zrotation
						JOINT mixamorig:HeadTop_End
						{
							OFFSET -0.830600 40.355194 7.893500
							CHANNELS 3 Xrotation Yrotation Zrotation
							End Site
							{
								OFFSET 0.000000 30.592346 0.000000
							}
						}
						JOINT mixamorig:RightEye
						{
							OFFSET -6.302100 18.118591 16.197100
							CHANNELS 3 Xrotation Yrotation Zrotation
							End Site
							{
								OFFSET 0.000000 30.592346 0.000000
							}
						}
						JOINT mixamorig:LeftEye
						{
							OFFSET 6.741500 18.382690 16.401899
							CHANNELS 3 Xrotation Yrotation Zrotation
							End Site
							{
								OFFSET 0.000000 30.592346 0.000000
							}
						}
					}
				}
				JOINT mixamorig:LeftShoulder
				{
					OFFSET 11.924900 18.230499 1.425400
					CHANNELS 3 Xrotation Yrotation Zrotation
					JOINT mixamorig:LeftArm
					{
						OFFSET 25.435989 -0.697632 -5.229300
						CHANNELS 3 Xrotation Yrotation Zrotation
						JOINT mixamorig:LeftForeArm
						{
							OFFSET 54.684776 0.000000 0.000000
							CHANNELS 3 Xrotation Yrotation Zrotation
							JOINT mixamorig:LeftHand
							{
								OFFSET 55.098175 0.000000 0.000000
								CHANNELS 3 Xrotation Yrotation Zrotation
								JOINT mixamorig:LeftHandMiddle1
								{
									OFFSET 23.369751 0.000000 0.000000
									CHANNELS 3 Xrotation Yrotation Zrotation
									JOINT mixamorig:LeftHandMiddle2
									{
										OFFSET 6.378677 0.000000 0.000000
										CHANNELS 3 Xrotation Yrotation Zrotation
										JOINT mixamorig:LeftHandMiddle3
										{
											OFFSET 6.148331 0.000000 0.000000
											CHANNELS 3 Xrotation Yrotation Zrotation
											JOINT mixamorig:LeftHandMiddle4
											{
												OFFSET 6.582504 0.000000 0.000000
												CHANNELS 3 Xrotation Yrotation Zrotation
												End Site
												{
													OFFSET -1.168900 6.395691 1.028606
												}
											}
										}
									}
								}
								JOINT mixamorig:LeftHandThumb1
								{
									OFFSET 7.235672 -3.848206 5.434273
									CHANNELS 3 Xrotation Yrotation Zrotation
									JOINT mixamorig:LeftHandThumb2
									{
										OFFSET 6.568451 -3.792297 3.792300
										CHANNELS 3 Xrotation Yrotation Zrotation
										JOINT mixamorig:LeftHandThumb3
										{
											OFFSET 6.063080 -3.500519 3.500518
											CHANNELS 3 Xrotation Yrotation Zrotation
											JOINT mixamorig:LeftHandThumb4
											{
												OFFSET 4.793182 -2.767334 2.767349
												CHANNELS 3 Xrotation Yrotation Zrotation
												End Site
												{
													OFFSET 0.101639 6.054260 1.275483
												}
											}
										}
									}
								}
								JOINT mixamorig:LeftHandIndex1
								{
									OFFSET 23.101074 -0.309540 4.992809
									CHANNELS 3 Xrotation Yrotation Zrotation
									JOINT mixamorig:LeftHandIndex2
									{
										OFFSET 6.226883 0.000000 0.000000
										CHANNELS 3 Xrotation Yrotation Zrotation
										JOINT mixamorig:LeftHandIndex3
										{
											OFFSET 6.094330 0.000000 0.000000
											CHANNELS 3 Xrotation Yrotation Zrotation
											JOINT mixamorig:LeftHandIndex4
											{
												OFFSET 5.482605 0.000000 0.000000
												CHANNELS 3 Xrotation Yrotation Zrotation
												End Site
												{
													OFFSET -1.427902 5.233032 0.797164
												}
											}
										}
									}
								}
								JOINT mixamorig:LeftHandRing1
								{
									OFFSET 22.299240 0.021149 -3.964172
									CHANNELS 3 Xrotation Yrotation Zrotation
									JOINT mixamorig:LeftHandRing2
									{
										OFFSET 6.321869 0.000000 0.000000
										CHANNELS 3 Xrotation Yrotation Zrotation
										JOINT mixamorig:LeftHandRing3
										{
											OFFSET 5.899796 0.000000 0.000000
											CHANNELS 3 Xrotation Yrotation Zrotation
											JOINT mixamorig:LeftHandRing4
											{
												OFFSET 6.517899 0.000000 0.000000
												CHANNELS 3 Xrotation Yrotation Zrotation
												End Site
												{
													OFFSET -1.637299 6.232208 0.980890
												}
											}
										}
									}
								}
								JOINT mixamorig:LeftHandPinky1
								{
									OFFSET 20.463791 -0.302338 -8.562233
									CHANNELS 3 Xrotation Yrotation Zrotation
									JOINT mixamorig:LeftHandPinky2
									{
										OFFSET 6.908646 0.000000 0.000000
										CHANNELS 3 Xrotation Yrotation Zrotation
										JOINT mixamorig:LeftHandPinky3
										{
											OFFSET 4.622849 0.000000 0.000000
											CHANNELS 3 Xrotation Yrotation Zrotation
											JOINT mixamorig:LeftHandPinky4
											{
												OFFSET 5.216080 0.000000 0.000000
												CHANNELS 3 Xrotation Yrotation Zrotation
												End Site
												{
													OFFSET -0.606308 5.116241 0.814926
												}
											}
										}
									}
								}
							}
						}
					}
				}
				JOINT mixamorig:RightShoulder
				{
					OFFSET -12.001300 18.284088 1.348900
					CHANNELS 3 Xrotation Yrotation Zrotation
					JOINT mixamorig:RightArm
					{
						OFFSET -25.308500 -0.751312 -5.164599
						CHANNELS 3 Xrotation Yrotation Zrotation
						JOINT mixamorig:RightForeArm
						{
							OFFSET -54.684429 0.000000 0.000000
							CHANNELS 3 Xrotation Yrotation Zrotation
							JOINT mixamorig:RightHand
							{
								OFFSET -55.150291 0.000000 0.000000
								CHANNELS 3 Xrotation Yrotation Zrotation
								JOINT mixamorig:RightHandMiddle1
								{
									OFFSET -23.317566 0.000000 0.000000
									CHANNELS 3 Xrotation Yrotation Zrotation
									JOINT mixamorig:RightHandMiddle2
									{
										OFFSET -6.378403 0.000000 0.000000
										CHANNELS 3 Xrotation Yrotation Zrotation
										JOINT mixamorig:RightHandMiddle3
										{
											OFFSET -6.148193 0.000000 0.000000
											CHANNELS 3 Xrotation Yrotation Zrotation
											JOINT mixamorig:RightHandMiddle4
											{
												OFFSET -6.583389 0.000000 0.000000
												CHANNELS 3 Xrotation Yrotation Zrotation
												End Site
												{
													OFFSET 1.171692 6.395905 1.029786
												}
											}
										}
									}
								}
								JOINT mixamorig:RightHandThumb1
								{
									OFFSET -7.190521 -3.860474 5.435846
									CHANNELS 3 Xrotation Yrotation Zrotation
									JOINT mixamorig:RightHandThumb2
									{
										OFFSET -6.567429 -3.791718 3.791708
										CHANNELS 3 Xrotation Yrotation Zrotation
										JOINT mixamorig:RightHandThumb3
										{
											OFFSET -6.062469 -3.500153 3.500166
											CHANNELS 3 Xrotation Yrotation Zrotation
											JOINT mixamorig:RightHandThumb4
											{
												OFFSET -4.792618 -2.767029 2.767022
												CHANNELS 3 Xrotation Yrotation Zrotation
												End Site
												{
													OFFSET -0.100327 6.053253 1.276754
												}
											}
										}
									}
								}
								JOINT mixamorig:RightHandIndex1
								{
									OFFSET -23.048981 -0.310791 4.992554
									CHANNELS 3 Xrotation Yrotation Zrotation
									JOINT mixamorig:RightHandIndex2
									{
										OFFSET -6.227539 0.000000 0.000000
										CHANNELS 3 Xrotation Yrotation Zrotation
										JOINT mixamorig:RightHandIndex3
										{
											OFFSET -6.095047 0.000000 0.000000
											CHANNELS 3 Xrotation Yrotation Zrotation
											JOINT mixamorig:RightHandIndex4
											{
												OFFSET -5.484772 0.000000 0.000000
												CHANNELS 3 Xrotation Yrotation Zrotation
												End Site
												{
													OFFSET 1.420593 5.237305 0.797056
												}
											}
										}
									}
								}
								JOINT mixamorig:RightHandRing1
								{
									OFFSET -22.246323 0.020569 -3.963762
									CHANNELS 3 Xrotation Yrotation Zrotation
									JOINT mixamorig:RightHandRing2
									{
										OFFSET -6.322128 0.000000 0.000000
										CHANNELS 3 Xrotation Yrotation Zrotation
										JOINT mixamorig:RightHandRing3
										{
											OFFSET -5.900024 0.000000 0.000000
											CHANNELS 3 Xrotation Yrotation Zrotation
											JOINT mixamorig:RightHandRing4
											{
												OFFSET -6.518356 0.000000 0.000000
												CHANNELS 3 Xrotation Yrotation Zrotation
												End Site
												{
													OFFSET 1.636398 6.232697 0.982186
												}
											}
										}
									}
								}
								JOINT mixamorig:RightHandPinky1
								{
									OFFSET -20.411011 -0.303314 -8.561701
									CHANNELS 3 Xrotation Yrotation Zrotation
									JOINT mixamorig:RightHandPinky2
									{
										OFFSET -6.907349 0.000000 0.000000
										CHANNELS 3 Xrotation Yrotation Zrotation
										JOINT mixamorig:RightHandPinky3
										{
											OFFSET -4.623840 0.000000 0.000000
											CHANNELS 3 Xrotation Yrotation Zrotation
											JOINT mixamorig:RightHandPinky4
											{
												OFFSET -5.218353 0.000000 0.000000
												CHANNELS 3 Xrotation Yrotation Zrotation
												End Site
												{
													OFFSET 0.602097 5.118835 0.816273
												}
											}
										}
									}
								}
							}
						}
					}
				}
			}
		}
	}
	JOINT mixamorig:LeftUpLeg
	{
		OFFSET 18.168400 -13.561905 -0.039000
		CHANNELS 3 Xrotation Yrotation Zrotation
		JOINT mixamorig:LeftLeg
		{
			OFFSET 0.577358 -80.825211 -3.695000
			CHANNELS 3 Xrotation Yrotation Zrotation
			JOINT mixamorig:LeftFoot
			{
				OFFSET -0.577356 -83.370262 -6.520700
				CHANNELS 3 Xrotation Yrotation Zrotation
				JOINT mixamorig:LeftToeBase
				{
					OFFSET 0.750401 -20.798306 25.135401
					CHANNELS 3 Xrotation Yrotation Zrotation
					JOINT mixamorig:LeftToe_End
					{
						OFFSET -0.000500 0.001200 19.917799
						CHANNELS 3 Xrotation Yrotation Zrotation
						End Site
						{
							OFFSET 0.000000 19.917805 0.000000
						}
					}
				}
			}
		}
	}
	JOINT mixamorig:RightUpLeg
	{
		OFFSET -18.162500 -13.585098 -0.041000
		CHANNELS 3 Xrotation Yrotation Zrotation
		JOINT mixamorig:RightLeg
		{
			OFFSET -0.595024 -80.945297 -3.631900
			CHANNELS 3 Xrotation Yrotation Zrotation
			JOINT mixamorig:RightFoot
			{
				OFFSET 0.595024 -83.218193 -6.561200
				CHANNELS 3 Xrotation Yrotation Zrotation
				JOINT mixamorig:RightToeBase
				{
					OFFSET -0.753601 -20.807106 25.115000
					CHANNELS 3 Xrotation Yrotation Zrotation
					JOINT mixamorig:RightToe_End
					{
						OFFSET 0.000299 0.001700 19.918200
						CHANNELS 3 Xrotation Yrotation Zrotation
						End Site
						{
							OFFSET 0.000000 19.918203 0.000000
						}
					}
				}
			}
		}
	}
}
MOTION
Frames: 5
Frame Time: 0.033333
-2.717857 178.762100 47.161922 -3.298881 2.357677 -7.829407 12.867586 1.078218 1.858280 5.953751 0.101969 -0.764111 5.954418 0.108359 -0.755291 2.231734 -0.589063 6.607746 -7.176170 2.929942 4.814808 0.000001 0.000000 0.000000 0.000001 0.000000 0.000000 0.000001 0.000000 0.000000 0.237944 -0.640475 4.329353 -11.665663 -35.576963 -68.698548 0.000036 -62.199801 0.000054 21.719730 -7.207441 18.949229 0.037364 0.717842 -5.959407 0.033126 0.676037 -5.611110 0.108961 1.222598 -10.185928 0.000002 0.000000 0.000004 0.878097 12.629891 -5.171246 3.939035 7.948721 0.746807 1.374067 26.415410 4.686994 0.000000 0.000005 -0.000002 0.005183 -0.267829 2.219811 0.017566 0.492487 -4.084425 0.122076 1.293354 -10.782500 0.000003 -0.000000 0.000004 0.258024 1.870862 -15.704058 0.082567 1.065335 -8.863994 0.133310 1.350972 -11.269314 -0.000002 -0.000003 0.000002 2.820278 6.895378 -28.593197 0.071070 -3.008115 -9.214142 0.158389 1.471210 -12.287573 0.000000 -0.000002 -0.000001 -0.257065 -3.503161 4.722420 4.436012 50.037273 42.990853 0.000020 81.435697 -0.000020 8.364457 13.748742 14.966507 1.719788 -4.582543 41.124289 1.138452 -3.817643 33.199255 0.329061 -2.117643 17.662968 0.000004 -0.000002 -0.000000 2.389867 -18.008844 6.898367 4.637198 -8.634143 -0.225408 0.125403 -16.757458 -3.767200 0.000002 -0.000001 -0.000003 1.921186 -4.802701 43.585500 1.082447 -3.730806 32.348537 0.213167 -1.711800 14.195391 0.000001 -0.000002 -0.000003 2.333316 -5.199905 48.310235 1.161972 -3.853288 33.551187 0.327316 -2.112121 17.615253 -0.000002 0.000003 0.000001 4.198812 -6.383543 66.639185 0.885156 -3.400049 29.177335 0.202442 -1.668912 13.832331 0.000003 -0.000004 -0.000000 -47.447439 -13.953469 1.714162 118.229331 -9.421328 -2.847318 44.224143 -6.320301 -11.654670 -0.452959 0.000002 0.000002 -0.000000 -0.000000 0.000000 -31.487698 -18.559017 9.610234 51.512986 4.762112 -1.191436 -14.027826 1.840969 -10.671826 -0.426927 0.000002 -0.000003 0.000000 -0.000000 0.000000 
-3.567787 178.360458 53.746830 -5.924825 0.321017 -9.630674 15.056597 0.911697 1.810545 6.447232 0.028181 -0.430490 6.447400 0.039612 -0.428062 4.323304 0.356334 5.006721 -8.817411 4.207582 7.369610 0.000001 0.000000 0.000000 0.000001 0.000000 0.000000 0.000001 0.000000 0.000000 -1.243541 2.994968 1.781034 -1.113053 -27.355830 -65.779619 0.000052 -66.619452 0.000055 16.773133 -6.639241 16.829588 0.012018 0.407473 -3.378567 0.008379 0.340092 -2.819316 0.077530 1.032500 -8.588805 -0.000001 0.000001 -0.000000 0.878101 12.629891 -5.171247 3.939032 7.948726 0.746804 1.374061 26.415410 4.686994 -0.000001 0.000000 0.000002 0.020037 -0.525934 4.362420 0.001860 0.160917 -1.333480 0.090125 1.112653 -9.261199 -0.000005 0.000001 -0.000000 0.152844 1.445632 -12.070647 0.035203 0.696799 -5.784143 0.101325 1.179256 -9.821184 -0.000002 0.000000 0.000002 2.172311 6.471333 -23.029923 0.021862 -3.371791 -6.175609 0.136783 1.368340 -11.416053 -0.000002 -0.000002 0.000001 1.096663 1.671265 3.894026 1.178560 53.703728 40.067222 -0.000576 86.891802 0.000657 9.649867 10.606023 16.786411 1.898972 -4.779328 43.319505 1.281146 -4.026815 35.285638 0.365769 -2.229533 18.630649 0.000000 -0.000001 0.000000 2.389871 -18.008849 6.898368 4.637197 -8.634139 -0.225412 0.125401 -16.757459 -3.767198 -0.000002 -0.000000 -0.000001 2.095508 -4.978790 45.630107 1.222109 -3.942215 34.435628 0.244029 -1.829454 15.194417 -0.000001 -0.000004 -0.000004 2.599027 -5.423909 51.179724 1.313056 -4.071401 35.737319 0.353326 -2.192357 18.308571 -0.000001 -0.000002 -0.000000 4.673699 -6.567104 70.848227 1.007695 -3.610353 31.180978 0.204273 -1.676248 13.894428 0.000000 -0.000001 -0.000001 -53.904352 -16.725883 2.127341 115.195676 -3.080167 -2.208510 42.016769 -1.927466 -5.645979 -0.452373 0.000001 -0.000001 0.000000 0.000000 -0.000000 -25.641007 -18.274936 12.335683 51.928712 6.287548 -0.511709 -16.611391 2.333282 -11.978843 -0.426339 0.000001 0.000003 -0.000000 -0.000000 0.000000 
-4.567406 180.701797 59.899384 -7.842894 -2.032440 -9.667083 15.717879 0.785936 0.743070 6.946447 -0.005558 -0.271400 6.946636 0.012226 -0.271839 5.915354 1.209286 2.867135 -10.374782 5.016277 9.577027 -0.000003 0.000000 0.000000 -0.000003 0.000000 0.000000 -0.000003 0.000000 0.000000 -2.638097 6.344532 0.029690 10.038702 -19.603066 -62.631858 0.000011 -73.181235 0.000010 13.408182 -5.801249 14.766893 0.006423 0.297841 -2.468815 0.000920 0.113061 -0.936741 0.052031 0.846582 -7.033286 0.000004 -0.000000 0.000000 0.878101 12.629891 -5.171243 3.939030 7.948721 0.746807 1.374065 26.415412 4.686987 -0.000001 -0.000000 0.000002 0.021153 -0.540497 4.483383 0.000009 -0.000017 -0.000025 0.062835 0.930014 -7.730521 -0.000002 0.000000 -0.000002 0.108114 1.217789 -10.145584 0.011323 0.395699 -3.280853 0.070696 0.986179 -8.200617 -0.000002 0.000001 0.000001 1.797592 6.181798 -19.630467 -0.008112 -3.739864 -3.117056 0.106085 1.206429 -10.049841 0.000001 -0.000001 -0.000001 2.184138 6.556495 2.436742 -1.341657 56.638589 38.304835 0.000817 91.243882 -0.000726 14.183900 10.467304 17.953366 2.017548 -4.901595 44.724666 1.396026 -4.183975 36.889712 0.410934 -2.359178 19.758846 0.000000 0.000001 -0.000003 2.389867 -18.008846 6.898366 4.637196 -8.634139 -0.225415 0.125404 -16.757454 -3.767202 -0.000003 0.000000 -0.000001 2.207785 -5.085766 46.909753 1.317794 -4.077930 35.804039 0.281687 -1.962761 16.332277 0.000003 0.000001 -0.000001 2.777734 -5.562325 53.046248 1.456685 -4.263402 37.713614 0.395709 -2.316397 19.385569 -0.000001 0.000001 -0.000001 4.991866 -6.668404 73.608361 1.156116 -3.844436 33.463832 0.226843 -1.764977 14.646340 -0.000003 -0.000000 -0.000005 -55.123209 -14.441159 3.773483 101.061180 7.140629 -0.761431 32.765797 -0.105077 0.471176 -0.451797 0.000003 0.000000 0.000002 0.000001 0.000000 -19.634839 -15.863241 13.746670 48.697825 7.569958 -0.081002 -17.231635 2.516966 -12.608656 -0.425692 0.000002 0.000001 -0.000000 0.000000 0.000000 
-5.118227 184.000793 64.694077 -8.891375 -4.129275 -8.643531 15.205331 0.611501 -0.408207 7.549146 -0.015497 -0.301214 7.549319 0.004577 -0.301553 6.595205 1.853666 0.708383 -11.819476 5.599707 10.760324 0.000002 -0.000000 -0.000000 0.000002 -0.000000 -0.000000 0.000002 -0.000000 -0.000000 -3.803042 9.272689 -0.551349 20.396581 -12.825295 -60.361407 0.000044 -79.795707 0.000042 12.713395 -5.427986 12.604925 0.007747 0.327288 -2.713054 -0.000003 0.015421 -0.127652 0.035987 0.704467 -5.848038 -0.000000 -0.000000 0.000000 0.878104 12.629891 -5.171241 3.939035 7.948721 0.746799 1.374062 26.415407 4.686991 0.000000 -0.000000 0.000001 0.013599 -0.433550 3.594953 0.000001 -0.000007 -0.000018 0.045755 0.794105 -6.595323 0.000001 -0.000002 0.000001 0.100730 1.175875 -9.792691 0.003451 0.218402 -1.810097 0.047976 0.812910 -6.752200 -0.000001 0.000003 -0.000001 1.687382 6.089626 -18.599367 -0.017606 -4.013616 -0.847783 0.075403 1.018286 -8.469555 0.000001 -0.000001 0.000002 2.859807 10.491725 0.946516 -4.038730 59.795465 37.754376 0.001419 93.127915 -0.001396 20.362069 14.008649 17.366408 2.116505 -4.999164 45.871455 1.476167 -4.288400 37.974783 0.452090 -2.470665 20.735665 0.000000 -0.000002 -0.000001 2.389867 -18.008851 6.898369 4.637199 -8.634143 -0.225409 0.125403 -16.757452 -3.767196 0.000000 0.000001 0.000001 2.329220 -5.196272 48.265122 1.372913 -4.153093 36.571971 0.312367 -2.064506 17.205392 -0.000000 -0.000001 -0.000003 2.895622 -5.648687 54.253357 1.562718 -4.396724 39.117839 0.442086 -2.444095 20.502315 0.000002 0.000003 -0.000002 5.172406 -6.718527 75.157318 1.276288 -4.019938 35.216172 0.262958 -1.897739 15.776432 -0.000001 -0.000002 0.000000 -51.762182 -8.639336 5.276547 78.280361 9.513587 1.691522 24.388958 1.916102 0.552060 -1.057208 0.010556 -0.996872 -0.000002 0.000000 0.000000 -14.966751 -12.639957 13.913221 44.095694 7.965688 -0.128318 -16.699116 2.389841 -12.301909 -0.425020 -0.000000 -0.000001 0.000000 -0.000000 0.000000 
-5.143745 186.027237 69.193436 -9.036967 -5.389493 -7.330541 14.161640 0.501212 -1.075836 8.125848 -0.014752 -0.448220 8.126054 0.003037 -0.447133 6.479216 2.205479 -0.923957 -12.923890 5.966348 10.644718 0.000000 0.000000 0.000000 0.000000 0.000000 0.000000 0.000000 0.000000 0.000000 -4.605844 11.733621 0.117737 29.312925 -7.858232 -59.247950 0.000209 -85.562893 0.000187 13.961820 -5.854997 9.457079 0.013342 0.429142 -3.558520 0.000021 0.019489 -0.161395 0.028557 0.627753 -5.209116 -0.000004 0.000002 -0.000000 0.878101 12.629895 -5.171241 3.939030 7.948723 0.746803 1.374064 26.415412 4.686991 0.000001 0.000002 0.000002 0.005662 -0.279665 2.317966 0.000009 -0.000002 0.000015 0.038624 0.729878 -6.059577 -0.000001 0.000002 -0.000002 0.113547 1.247782 -10.398290 0.002015 0.167067 -1.384601 0.034969 0.694464 -5.764671 0.000001 -0.000000 0.000002 1.742042 6.135739 -19.112478 -0.018115 -4.056668 -0.491025 0.052920 0.853811 -7.093776 0.000001 -0.000001 -0.000001 3.112077 12.966719 -0.031513 -7.497265 63.645560 38.228531 0.002150 92.447218 -0.002237 26.002546 19.035119 14.321803 2.221722 -5.098734 47.066991 1.538666 -4.367074 38.802964 0.482787 -2.550210 21.436561 0.000000 0.000001 0.000003 2.389869 -18.008847 6.898364 4.637198 -8.634139 -0.225417 0.125401 -16.757456 -3.767196 -0.000002 -0.000001 0.000000 2.473436 -5.320871 49.838463 1.418194 -4.213274 37.192709 0.330928 -2.123503 17.713512 -0.000000 -0.000001 -0.000001 3.004166 -5.724872 55.348687 1.635055 -4.483939 40.052041 0.480679 -2.544853 21.389311 0.000002 -0.000001 0.000001 5.319290 -6.755486 76.409395 1.348692 -4.120338 36.236172 0.298502 -2.019243 16.816505 -0.000001 -0.000000 0.000001 -46.232164 -2.469185 6.308057 51.964410 9.647436 3.186471 23.053738 0.418208 -3.663795 -0.567704 -0.000356 0.173957 0.000000 0.000001 -0.000000 -12.457814 -10.068944 13.218652 41.520365 7.633646 -0.359223 -17.080082 2.302375 -11.658481 -0.424351 0.000000 0.000003 0.000000 -0.000000 0.000000 
